<svg id="Layer_1" data-name="Layer 1" xmlns="http://www.w3.org/2000/svg" xmlns:xlink="http://www.w3.org/1999/xlink" viewBox="0 0 1920 1691"><defs><style>.cls-1{fill:#3c0a67;}.cls-2,.cls-3,.cls-5,.cls-6{opacity:0.7;}.cls-2,.cls-3,.cls-4,.cls-5,.cls-6,.cls-7{isolation:isolate;}.cls-2{fill:url(#linear-gradient);}.cls-3{fill:url(#linear-gradient-2);}.cls-4,.cls-7{opacity:0.5;}.cls-4{fill:url(#linear-gradient-3);}.cls-5{fill:url(#linear-gradient-4);}.cls-6{fill:url(#linear-gradient-5);}.cls-7{fill:url(#linear-gradient-6);}</style><linearGradient id="linear-gradient" x1="0.26" y1="1080.95" x2="1.26" y2="1080.95" gradientTransform="matrix(1891.17, 0, 0, -1549.78, -7.12, 1676046.16)" gradientUnits="userSpaceOnUse"><stop offset="0.16" stop-color="#3c0a67"/><stop offset="1" stop-color="#84dbf6"/></linearGradient><linearGradient id="linear-gradient-2" x1="0.26" y1="1080.95" x2="1.26" y2="1080.95" gradientTransform="matrix(1891.17, 0, 0, -1549.78, -53.62, 1675999.67)" xlink:href="#linear-gradient"/><linearGradient id="linear-gradient-3" x1="0.26" y1="1080.95" x2="1.26" y2="1080.95" gradientTransform="matrix(1891.17, 0, 0, -1549.78, -100.12, 1675954.22)" xlink:href="#linear-gradient"/><linearGradient id="linear-gradient-4" x1="0.37" y1="1080.84" x2="1.37" y2="1080.84" gradientTransform="matrix(2219.94, 0, 0, -2049.18, -1654.94, 2215492.19)" gradientUnits="userSpaceOnUse"><stop offset="0.16" stop-color="#3c0a67"/><stop offset="1" stop-color="#ff47f5"/></linearGradient><linearGradient id="linear-gradient-5" x1="0.37" y1="1080.84" x2="1.37" y2="1080.84" gradientTransform="matrix(2219.94, 0, 0, -2049.18, -1607.56, 2215445.87)" xlink:href="#linear-gradient-4"/><linearGradient id="linear-gradient-6" x1="0.37" y1="1080.84" x2="1.37" y2="1080.84" gradientTransform="matrix(2219.94, 0, 0, -2049.18, -1572.82, 2215395.08)" xlink:href="#linear-gradient-4"/></defs><g id="Group_9" data-name="Group 9"><g id="Group_8" data-name="Group 8"><path id="Path_9" data-name="Path 9" class="cls-1" d="M2360,184.62a174.43,174.43,0,0,0-48.07-74.83,174.43,174.43,0,0,0-74.83-48.07q-41.55-21.82-89.57-20l-61.8,8.3a232.25,232.25,0,0,0-102.59,59.79l-36.36,47.05a231.46,231.46,0,0,0-31.74,117.34c-.11,4.52-.32,9-.57,13.54a446.26,446.26,0,0,1-14.66,52.48,511.25,511.25,0,0,1-35.49,60.14,552.34,552.34,0,0,1-56.58,56.46A667.32,667.32,0,0,1,1713,511.28c-54.28,20.33-110.65,34.65-167.83,44.12-47.69,5-95.61,7.68-143.31,12.61-48,5-96.19,10.71-143.58,20-27.66,5.45-55,12.75-81.32,23-43.18,16.8-88.41,34.2-126.72,61.18-20.84,14.68-40.77,30.79-60.76,46.58q-7.53,6-14.71,12.36a366.37,366.37,0,0,0-27.12,26.92C900,810.44,860,869.51,824.5,930.55c-24.13,41.42-47.31,83.57-74.57,123a494.43,494.43,0,0,1-47.8,47.45c-31.07,21.51-64,40.25-97.82,57.08A175.79,175.79,0,0,0,539.08,1218a175.19,175.19,0,0,0-41.61,79.07q-14.52,46.35-4.15,92.71,2.1,46.41,27.59,86.44l36.35,47A232.25,232.25,0,0,0,659.85,1583l61.81,8.3A231.36,231.36,0,0,0,839,1559.6c36-17.88,70.93-37.85,103.68-61.13,47.47-33.74,95.83-70.14,134.55-114.22l2.18-2.5a176.39,176.39,0,0,0,56.17,47.16l55.54,23.44a234.19,234.19,0,0,0,123.61,0l55.53-23.44a235.74,235.74,0,0,0,49.58-39c8.43-1.93,16.9-3.69,25.35-5.42q32.63-6.67,65.51-11.78c51.55-5.87,103.69-9.26,155.67-8.57,7.05,9,14.3,17.93,21.38,26.69,1.84,2.28,3.7,4.52,5.71,6.65,1.77,1.86,3.62,3.63,5.55,5.33,16.54,14.62,35.14,28.39,53,41.21a95.24,95.24,0,0,0,14.13,8.53c22.08,10.66,45.72,22.27,69.93,28.83,2.6.7,5.22,1.23,7.87,1.73,20,3.74,43.91,6.3,64.15,8.67,1.58.19,3.14.41,4.72.56a101.45,101.45,0,0,0,18.93-.17c24.48-2.34,53.93-4.55,79.29-11.7,25-7,48.88-18.81,72.35-29.65a119.54,119.54,0,0,0,18.7-10.81c17.95-12.67,35.79-26.8,52.8-40.69,3.1-2.53,6.06-5.17,8.94-8a232.34,232.34,0,0,0,59.79-102.59q14.54-46.35,4.15-92.7a172.85,172.85,0,0,0-27.59-86.44,233.4,233.4,0,0,0-81.38-82.17,231.81,231.81,0,0,0-51.26-77.57l-47-36.35a237.2,237.2,0,0,0-38.63-18q6.43-3.49,12.82-7.1c47.34-27,90.94-60.64,132.86-95.21a546.4,546.4,0,0,0,70.09-69.31c33.17-39.33,65.81-80.82,91.33-125.77a503.15,503.15,0,0,0,24.68-49.87c14.84-34.53,30.71-69.21,41.3-105.43a424.06,424.06,0,0,0,12.08-54c5.84-37.57,12.05-76.38,13-114.7Q2381.84,226.18,2360,184.62Z"/><path id="Path_10" data-name="Path 10" class="cls-2" d="M2360,184.62a174.43,174.43,0,0,0-48.07-74.83,174.43,174.43,0,0,0-74.83-48.07q-41.55-21.82-89.57-20l-61.8,8.3a232.25,232.25,0,0,0-102.59,59.79l-36.36,47.05a231.46,231.46,0,0,0-31.74,117.34c-.11,4.52-.32,9-.57,13.54a446.26,446.26,0,0,1-14.66,52.48,511.25,511.25,0,0,1-35.49,60.14,552.34,552.34,0,0,1-56.58,56.46A667.32,667.32,0,0,1,1713,511.28c-54.28,20.33-110.65,34.65-167.83,44.12-47.69,5-95.61,7.68-143.31,12.61-48,5-96.19,10.71-143.58,20-27.66,5.45-55,12.75-81.32,23-43.18,16.8-88.41,34.2-126.72,61.18-20.84,14.68-40.77,30.79-60.76,46.58q-7.53,6-14.71,12.36a366.37,366.37,0,0,0-27.12,26.92C900,810.44,860,869.51,824.5,930.55c-24.13,41.42-47.31,83.57-74.57,123a494.43,494.43,0,0,1-47.8,47.45c-31.07,21.51-64,40.25-97.82,57.08A175.79,175.79,0,0,0,539.08,1218a175.19,175.19,0,0,0-41.61,79.07q-14.52,46.35-4.15,92.71,2.1,46.41,27.59,86.44l36.35,47A232.25,232.25,0,0,0,659.85,1583l61.81,8.3A231.36,231.36,0,0,0,839,1559.6c36-17.88,70.93-37.85,103.68-61.13,47.47-33.74,95.83-70.14,134.55-114.22l2.18-2.5a176.39,176.39,0,0,0,56.17,47.16l55.54,23.44a234.19,234.19,0,0,0,123.61,0l55.53-23.44a235.74,235.74,0,0,0,49.58-39c8.43-1.93,16.9-3.69,25.35-5.42q32.63-6.67,65.51-11.78c51.55-5.87,103.69-9.26,155.67-8.57,7.05,9,14.3,17.93,21.38,26.69,1.84,2.28,3.7,4.52,5.71,6.65,1.77,1.86,3.62,3.63,5.55,5.33,16.54,14.62,35.14,28.39,53,41.21a95.24,95.24,0,0,0,14.13,8.53c22.08,10.66,45.72,22.27,69.93,28.83,2.6.7,5.22,1.23,7.87,1.73,20,3.74,43.91,6.3,64.15,8.67,1.58.19,3.14.41,4.72.56a101.45,101.45,0,0,0,18.93-.17c24.48-2.34,53.93-4.55,79.29-11.7,25-7,48.88-18.81,72.35-29.65a119.54,119.54,0,0,0,18.7-10.81c17.95-12.67,35.79-26.8,52.8-40.69,3.1-2.53,6.06-5.17,8.94-8a232.34,232.34,0,0,0,59.79-102.59q14.54-46.35,4.15-92.7a172.85,172.85,0,0,0-27.59-86.44,233.4,233.4,0,0,0-81.38-82.17,231.81,231.81,0,0,0-51.26-77.57l-47-36.35a237.2,237.2,0,0,0-38.63-18q6.43-3.49,12.82-7.1c47.34-27,90.94-60.64,132.86-95.21a546.4,546.4,0,0,0,70.09-69.31c33.17-39.33,65.81-80.82,91.33-125.77a503.15,503.15,0,0,0,24.68-49.87c14.84-34.53,30.71-69.21,41.3-105.43a424.06,424.06,0,0,0,12.08-54c5.84-37.57,12.05-76.38,13-114.7Q2381.84,226.18,2360,184.62Z"/><path id="Path_11" data-name="Path 11" class="cls-3" d="M2313.51,138.12a174.25,174.25,0,0,0-48.07-74.82,174.27,174.27,0,0,0-74.82-48.07Q2149.05-6.61,2101-4.8l-61.8,8.3a232.34,232.34,0,0,0-102.59,59.79l-36.35,47.05a231.37,231.37,0,0,0-31.74,117.35c-.11,4.51-.32,9-.58,13.53a444,444,0,0,1-14.66,52.49,511.05,511.05,0,0,1-35.48,60.13,554.36,554.36,0,0,1-56.58,56.46,667.32,667.32,0,0,1-94.74,54.48c-54.28,20.33-110.65,34.65-167.84,44.12-47.68,5-95.6,7.68-143.31,12.61-48,5-96.19,10.71-143.57,20-27.66,5.45-55,12.75-81.32,23-43.18,16.8-88.41,34.19-126.72,61.17C982.91,640.4,963,656.51,943,672.3q-7.54,6-14.72,12.36a366.25,366.25,0,0,0-27.11,26.92C853.54,763.94,813.55,823,778,884.05c-24.12,41.42-47.3,83.57-74.57,123a492.17,492.17,0,0,1-47.8,47.45c-31.06,21.51-64,40.25-97.81,57.09a175.61,175.61,0,0,0-65.23,59.87A175.09,175.09,0,0,0,451,1250.55q-14.53,46.37-4.16,92.71,2.1,46.41,27.59,86.44l36.36,47a232.16,232.16,0,0,0,102.59,59.79l61.8,8.3A231.3,231.3,0,0,0,792.5,1513.1c36-17.88,70.93-37.85,103.69-61.13,47.47-33.74,95.83-70.14,134.55-114.22.73-.83,1.44-1.67,2.17-2.5a176.39,176.39,0,0,0,56.17,47.16l55.54,23.44a234.19,234.19,0,0,0,123.61,0l55.54-23.44a235.68,235.68,0,0,0,49.57-39c8.43-1.93,16.9-3.69,25.36-5.42q32.61-6.67,65.51-11.78c51.54-5.87,103.69-9.26,155.67-8.57,7,9,14.3,17.93,21.38,26.69,1.84,2.28,3.69,4.52,5.71,6.65,1.76,1.86,3.62,3.63,5.54,5.33,16.54,14.62,35.14,28.39,53,41.21a94.63,94.63,0,0,0,14.12,8.53c22.08,10.66,45.72,22.27,69.93,28.83,2.6.7,5.23,1.23,7.87,1.73,20,3.74,43.91,6.3,64.16,8.68,1.57.18,3.13.4,4.71.55a101.45,101.45,0,0,0,18.93-.17c24.48-2.34,53.94-4.55,79.29-11.7,25-7,48.88-18.81,72.35-29.65a119.09,119.09,0,0,0,18.7-10.81c17.95-12.67,35.79-26.8,52.8-40.68,3.1-2.54,6.06-5.18,8.94-8a232.3,232.3,0,0,0,59.79-102.59q14.54-46.36,4.16-92.71-2.1-46.41-27.59-86.44A233.57,233.57,0,0,0,2072.33,981a232,232,0,0,0-51.27-77.57l-47-36.35a238,238,0,0,0-38.63-18q6.45-3.49,12.82-7.1c47.34-27,90.94-60.64,132.87-95.21a547,547,0,0,0,70.09-69.31c33.16-39.33,65.8-80.82,91.32-125.77a505.43,505.43,0,0,0,24.69-49.87c14.83-34.53,30.71-69.21,41.3-105.43a425.75,425.75,0,0,0,12.07-54c5.84-37.57,12.05-76.38,13-114.7Q2335.34,179.68,2313.51,138.12Z"/><path id="Path_12" data-name="Path 12" class="cls-4" d="M2267,101.62c-9.37-28.82-25.4-63.76-48.07-84.82a174.16,174.16,0,0,0-74.82-48.07q-41.57-21.84-89.57-20l-61.8,8.3a232.29,232.29,0,0,0-102.59,59.79L1853.8,63.85a231.4,231.4,0,0,0-31.74,117.34c-.11,4.51-.32,9-.58,13.53a443.91,443.91,0,0,1-14.65,52.49,513.46,513.46,0,0,1-35.49,60.14,553.25,553.25,0,0,1-56.58,56.45A667.32,667.32,0,0,1,1620,418.28c-54.28,20.33-110.65,34.66-167.84,44.13-47.68,5-95.6,7.67-143.3,12.6-48,5-96.2,10.71-143.58,20.05-27.66,5.46-55,12.76-81.32,23-43.18,16.8-88.41,34.19-126.72,61.17-20.85,14.69-40.77,30.8-60.76,46.59q-7.53,6-14.71,12.36a366.24,366.24,0,0,0-27.12,26.91C807,717.44,767.05,776.52,731.5,837.55c-24.12,41.43-47.3,83.57-74.57,123a493.41,493.41,0,0,1-47.8,47.46c-31.06,21.5-64,40.24-97.81,57.08A175.63,175.63,0,0,0,446.09,1125a175.09,175.09,0,0,0-41.61,79.07q-14.53,46.35-4.15,92.7a172.85,172.85,0,0,0,27.59,86.44q18.16,23.54,36.35,47.06a232.34,232.34,0,0,0,102.59,59.79l61.8,8.3A231.56,231.56,0,0,0,746,1466.61c36-17.89,70.93-37.86,103.68-61.14,47.47-33.74,95.83-70.13,134.55-114.22l2.18-2.5a176.29,176.29,0,0,0,56.17,47.17l55.54,23.43a234.19,234.19,0,0,0,123.61,0l55.53-23.43a236.07,236.07,0,0,0,49.58-39c8.43-1.94,16.9-3.69,25.35-5.42q32.61-6.69,65.51-11.79c51.55-5.87,103.69-9.25,155.67-8.57,7.05,9,14.3,17.94,21.38,26.7,1.84,2.28,3.7,4.52,5.71,6.64,1.77,1.87,3.62,3.64,5.55,5.34,16.54,14.61,35.14,28.38,53,41.2a95.3,95.3,0,0,0,14.13,8.54c22.08,10.65,45.72,22.27,69.93,28.82,2.6.7,5.22,1.24,7.87,1.73,20,3.75,43.91,6.3,64.15,8.68,1.58.18,3.14.41,4.72.55a101.45,101.45,0,0,0,18.93-.16c24.48-2.34,53.94-4.56,79.29-11.7,25-7.06,48.88-18.81,72.35-29.66a119,119,0,0,0,18.7-10.8c18-12.68,35.79-26.8,52.8-40.69,3.1-2.53,6.07-5.18,8.94-8a232.16,232.16,0,0,0,59.79-102.59q14.54-46.36,4.16-92.71-2.1-46.41-27.59-86.44a233.46,233.46,0,0,0-81.38-82.16,231.71,231.71,0,0,0-51.26-77.57l-47.06-36.36a238,238,0,0,0-38.63-18q6.45-3.49,12.82-7.1c47.34-27,90.94-60.64,132.87-95.21a547,547,0,0,0,70.09-69.31c33.16-39.33,65.81-80.82,91.32-125.77a500.88,500.88,0,0,0,24.69-49.86c14.83-34.54,30.71-69.22,41.3-105.44a425.36,425.36,0,0,0,12.07-54c5.84-37.57,12.05-76.37,13-114.7C2288.24,149.18,2281.57,129.32,2267,101.62Z"/></g><g id="Group_7" data-name="Group 7"><g id="Group_6" data-name="Group 6"><path id="Path_5" data-name="Path 5" class="cls-1" d="M1357.54,1334.14l-37-47.94A236.64,236.64,0,0,0,1216,1225.28a941.16,941.16,0,0,1-184.19-50.43,1078.82,1078.82,0,0,1-184.55-108.57C782,1013,722.91,952.57,669.9,887.11A1486.54,1486.54,0,0,1,569.3,730.56c-35.58-63.7-64.35-130-94.09-196.49-7.28-16.29-15-32.42-23.8-48C433,453.72,409,424,385.35,395.53A236.17,236.17,0,0,0,352,362.68c-25.5-20.55-52.4-43.17-81.37-59.81-29.59-17-63-29.36-94.08-42.13A437,437,0,0,0,134.14,246C104.88,237.31,75,231.13,45,225.5c-58.52-11-118.13-19.73-174.65-38.85a440.37,440.37,0,0,1-44.2-26.19,572,572,0,0,1-57.67-58.72C-264,55.33-290.63,5.2-313.86-46.47-332-92-348.44-138.15-364.76-184.35a178.42,178.42,0,0,0-42.4-80.55,179,179,0,0,0-66.46-61q-40.78-26-88.07-28.11-47.22-10.58-94.46,4.23l-56.58,23.88a238.1,238.1,0,0,0-85,85q-11.92,28.29-23.87,56.58a238.41,238.41,0,0,0,0,126c32.07,90.78,65.73,181,106.53,268.33,38.31,82,88.06,155.11,146.41,224.38q11.46,13.59,23.72,26.51l-36.81,47.65-23.88,56.59q-14.8,47.24-4.23,94.46,2.15,47.28,28.11,88.07A1005.63,1005.63,0,0,0-507.32,866.3c38.55,52.86,79.05,104.94,124.47,152.16q27.86,28.95,58,55.58a177.65,177.65,0,0,0,76.24,49q42.35,22.24,91.26,20.4a190.2,190.2,0,0,0,23.39-.54q33.66,33.72,66.79,67.91,48.63,50.06,96.74,100.6a177.62,177.62,0,0,0,76.23,49q42.35,22.25,91.27,20.4,48.91,1.85,91.26-20.4a177.65,177.65,0,0,0,76.24-49l22.3-28.88q7,7.7,14.14,15.26a1189,1189,0,0,0,93.76,89c81.18,69,168.25,132.58,263.57,180.64a1431.91,1431.91,0,0,0,188,78.87,927.09,927.09,0,0,0,143.76,35.8q47.23,14.81,94.46,4.23,47.28-2.14,88.07-28.11a179,179,0,0,0,66.46-61,178.4,178.4,0,0,0,42.4-80.56l8.46-63A235.75,235.75,0,0,0,1357.54,1334.14Z"/><path id="Path_6" data-name="Path 6" class="cls-5" d="M1357.54,1334.14l-37-47.94A236.64,236.64,0,0,0,1216,1225.28a941.16,941.16,0,0,1-184.19-50.43,1078.82,1078.82,0,0,1-184.55-108.57C782,1013,722.91,952.57,669.9,887.11A1486.54,1486.54,0,0,1,569.3,730.56c-35.58-63.7-64.35-130-94.09-196.49-7.28-16.29-15-32.42-23.8-48C433,453.72,409,424,385.35,395.53A236.17,236.17,0,0,0,352,362.68c-25.5-20.55-52.4-43.17-81.37-59.81-29.59-17-63-29.36-94.08-42.13A437,437,0,0,0,134.14,246C104.88,237.31,75,231.13,45,225.5c-58.52-11-118.13-19.73-174.65-38.85a440.37,440.37,0,0,1-44.2-26.19,572,572,0,0,1-57.67-58.72C-264,55.33-290.63,5.2-313.86-46.47-332-92-348.44-138.15-364.76-184.35a178.42,178.42,0,0,0-42.4-80.55,179,179,0,0,0-66.46-61q-40.78-26-88.07-28.11-47.22-10.58-94.46,4.23l-56.58,23.88a238.1,238.1,0,0,0-85,85q-11.92,28.29-23.87,56.58a238.41,238.41,0,0,0,0,126c32.07,90.78,65.73,181,106.53,268.33,38.31,82,88.06,155.11,146.41,224.38q11.46,13.59,23.72,26.51l-36.81,47.65-23.88,56.59q-14.8,47.24-4.23,94.46,2.15,47.28,28.11,88.07A1005.63,1005.63,0,0,0-507.32,866.3c38.55,52.86,79.05,104.94,124.47,152.16q27.86,28.95,58,55.58a177.65,177.65,0,0,0,76.24,49q42.35,22.24,91.26,20.4a190.2,190.2,0,0,0,23.39-.54q33.66,33.72,66.79,67.91,48.63,50.06,96.74,100.6a177.62,177.62,0,0,0,76.23,49q42.35,22.25,91.27,20.4,48.91,1.85,91.26-20.4a177.65,177.65,0,0,0,76.24-49l22.3-28.88q7,7.7,14.14,15.26a1189,1189,0,0,0,93.76,89c81.18,69,168.25,132.58,263.57,180.64a1431.91,1431.91,0,0,0,188,78.87,927.09,927.09,0,0,0,143.76,35.8q47.23,14.81,94.46,4.23,47.28-2.14,88.07-28.11a179,179,0,0,0,66.46-61,178.4,178.4,0,0,0,42.4-80.56l8.46-63A235.75,235.75,0,0,0,1357.54,1334.14Z"/><path id="Path_7" data-name="Path 7" class="cls-6" d="M1404.92,1286.77l-37-47.94a236.64,236.64,0,0,0-104.53-60.92,940.4,940.4,0,0,1-184.18-50.44A1078.9,1078.9,0,0,1,894.61,1018.9C829.4,965.57,770.29,905.19,717.28,839.74A1487.33,1487.33,0,0,1,616.67,683.18c-35.57-63.69-64.35-130-94.08-196.48-7.29-16.29-15-32.43-23.8-48-18.38-32.4-42.43-62.15-66.06-90.59a236.09,236.09,0,0,0-33.39-32.84c-25.5-20.55-52.4-43.17-81.37-59.81-29.59-17-63.05-29.37-94.08-42.13a434.5,434.5,0,0,0-42.38-14.78c-29.25-8.65-59.17-14.83-89.13-20.46-58.51-11-118.13-19.73-174.64-38.85a443.64,443.64,0,0,1-44.21-26.2,572.79,572.79,0,0,1-57.66-58.71C-216.59,8-243.26-42.18-266.48-93.84c-18.17-45.5-34.59-91.69-50.9-137.88a178.45,178.45,0,0,0-42.4-80.56,179,179,0,0,0-66.46-61q-40.78-26-88.07-28.11-47.24-10.58-94.46,4.23l-56.58,23.88a238.17,238.17,0,0,0-85,85l-23.88,56.59a238.58,238.58,0,0,0,0,125.94c32.07,90.79,65.74,181,106.53,268.33,38.31,82,88.07,155.11,146.42,224.38q11.46,13.6,23.72,26.52l-36.82,47.65-23.88,56.58q-14.81,47.24-4.23,94.46,2.15,47.29,28.11,88.07a1005.71,1005.71,0,0,0,74.43,118.71c38.55,52.87,79,104.94,124.47,152.17q27.86,28.93,58,55.57a177.52,177.52,0,0,0,76.23,49q42.35,22.24,91.27,20.4a192.2,192.2,0,0,0,23.39-.53q33.65,33.72,66.79,67.9,48.61,50.05,96.74,100.6a177.47,177.47,0,0,0,76.23,49q42.35,22.24,91.26,20.4,48.93,1.84,91.27-20.4a177.52,177.52,0,0,0,76.23-49l22.31-28.87q7,7.68,14.14,15.26a1189.21,1189.21,0,0,0,93.76,89c81.18,69,168.25,132.58,263.56,180.63a1429.32,1429.32,0,0,0,188,78.87,924.54,924.54,0,0,0,143.76,35.8q47.22,14.82,94.46,4.23,47.28-2.13,88.07-28.1a179.06,179.06,0,0,0,66.46-61,178.45,178.45,0,0,0,42.4-80.56l8.46-63A235.82,235.82,0,0,0,1404.92,1286.77Z"/><path id="Path_8" data-name="Path 8" class="cls-7" d="M1439.66,1236.23l-37-47.94a236.68,236.68,0,0,0-104.53-60.92,940.56,940.56,0,0,1-184.18-50.43A1079.29,1079.29,0,0,1,929.35,968.37C864.15,915,805,854.66,752,789.21a1486.67,1486.67,0,0,1-100.6-156.56c-35.58-63.69-64.35-130-94.09-196.48-7.28-16.3-15-32.43-23.8-48-18.38-32.4-42.43-62.15-66.06-90.59a235.56,235.56,0,0,0-33.39-32.84c-25.5-20.55-52.4-43.17-81.37-59.81-29.59-17-63-29.37-94.08-42.13a434.5,434.5,0,0,0-42.38-14.78c-29.25-8.65-59.17-14.83-89.12-20.46C68.61,116.6,9,107.87-47.52,88.75a442.35,442.35,0,0,1-44.2-26.2A571.86,571.86,0,0,1-149.39,3.84c-32.46-46.41-59.13-96.55-82.35-148.21-18.17-45.5-34.58-91.69-50.9-137.88A178.4,178.4,0,0,0-325-362.81a179,179,0,0,0-66.46-61q-40.78-26-88.07-28.11Q-526.81-462.5-574-447.7l-56.59,23.88a238.15,238.15,0,0,0-85,85l-23.88,56.59a238.58,238.58,0,0,0,0,125.94c32.07,90.78,65.74,181,106.54,268.33,38.31,82,88.06,155.11,146.41,224.38q11.46,13.59,23.72,26.51l-36.81,47.65-23.88,56.59q-14.81,47.24-4.23,94.46,2.15,47.28,28.11,88.07A1005.63,1005.63,0,0,0-425.2,768.39c38.55,52.86,79.05,104.94,124.47,152.16q27.86,29,58,55.58a177.65,177.65,0,0,0,76.24,49q42.34,22.25,91.26,20.4a190.2,190.2,0,0,0,23.39-.54q33.65,33.72,66.79,67.91,48.63,50.05,96.74,100.6a177.62,177.62,0,0,0,76.23,49q42.35,22.24,91.27,20.4,48.92,1.85,91.26-20.4a177.56,177.56,0,0,0,76.23-49L469,1184.6q7,7.7,14.14,15.27a1190.74,1190.74,0,0,0,93.76,89c81.18,68.95,168.25,132.58,263.56,180.64a1431.25,1431.25,0,0,0,188,78.87,926,926,0,0,0,143.76,35.8q47.24,14.8,94.46,4.23,47.28-2.15,88.07-28.11a179,179,0,0,0,66.46-61,178.42,178.42,0,0,0,42.4-80.55l8.46-63A235.75,235.75,0,0,0,1439.66,1236.23Z"/></g></g></g></svg>